<mxfile host="app.diagrams.net" modified="2024-01-02T07:02:13.656Z" agent="Mozilla/5.0 (Windows NT 10.0; Win64; x64) AppleWebKit/537.36 (KHTML, like Gecko) Chrome/120.0.0.0 Safari/537.36" etag="MMsfOlLQuZb-ZvRJL_uV" version="22.1.16" type="github">
  <diagram name="페이지-1" id="hy02xGiUh7fXSHe3p_Tz">
    <mxGraphModel dx="1878" dy="2084" grid="1" gridSize="10" guides="1" tooltips="1" connect="1" arrows="1" fold="1" page="1" pageScale="1" pageWidth="827" pageHeight="1169" math="0" shadow="0">
      <root>
        <mxCell id="0" />
        <mxCell id="1" parent="0" />
        <mxCell id="Dn0xkWM3ZomTGmDPU3Qp-89" value="" style="rounded=0;whiteSpace=wrap;html=1;fontSize=16;" vertex="1" parent="1">
          <mxGeometry x="-225" y="-719" width="120" height="60" as="geometry" />
        </mxCell>
        <mxCell id="Dn0xkWM3ZomTGmDPU3Qp-90" value="" style="rounded=0;whiteSpace=wrap;html=1;fontSize=16;" vertex="1" parent="1">
          <mxGeometry x="145" y="-719" width="120" height="60" as="geometry" />
        </mxCell>
        <mxCell id="Dn0xkWM3ZomTGmDPU3Qp-91" value="" style="endArrow=none;html=1;rounded=0;fontSize=12;startSize=8;endSize=8;curved=1;exitX=1;exitY=0.5;exitDx=0;exitDy=0;" edge="1" parent="1" source="Dn0xkWM3ZomTGmDPU3Qp-89" target="Dn0xkWM3ZomTGmDPU3Qp-93">
          <mxGeometry width="50" height="50" relative="1" as="geometry">
            <mxPoint x="-5" y="-664" as="sourcePoint" />
            <mxPoint x="-35" y="-689" as="targetPoint" />
          </mxGeometry>
        </mxCell>
        <mxCell id="Dn0xkWM3ZomTGmDPU3Qp-92" value="" style="endArrow=none;html=1;rounded=0;fontSize=12;startSize=8;endSize=8;curved=1;exitX=1;exitY=0.5;exitDx=0;exitDy=0;" edge="1" parent="1" source="Dn0xkWM3ZomTGmDPU3Qp-93">
          <mxGeometry width="50" height="50" relative="1" as="geometry">
            <mxPoint x="75" y="-689" as="sourcePoint" />
            <mxPoint x="145" y="-689.5" as="targetPoint" />
          </mxGeometry>
        </mxCell>
        <mxCell id="Dn0xkWM3ZomTGmDPU3Qp-93" value="" style="rhombus;whiteSpace=wrap;html=1;fontSize=16;" vertex="1" parent="1">
          <mxGeometry x="-55" y="-729" width="120" height="70" as="geometry" />
        </mxCell>
        <mxCell id="Dn0xkWM3ZomTGmDPU3Qp-109" value="고객" style="text;strokeColor=none;fillColor=none;html=1;align=center;verticalAlign=middle;whiteSpace=wrap;rounded=0;fontSize=16;" vertex="1" parent="1">
          <mxGeometry x="-195" y="-704" width="60" height="30" as="geometry" />
        </mxCell>
        <mxCell id="Dn0xkWM3ZomTGmDPU3Qp-111" value="" style="endArrow=none;html=1;rounded=0;fontSize=12;startSize=8;endSize=8;curved=1;exitX=0.667;exitY=0.101;exitDx=0;exitDy=0;exitPerimeter=0;" edge="1" parent="1" source="Dn0xkWM3ZomTGmDPU3Qp-193" target="Dn0xkWM3ZomTGmDPU3Qp-190">
          <mxGeometry width="50" height="50" relative="1" as="geometry">
            <mxPoint x="-227.9799999999998" y="-847" as="sourcePoint" />
            <mxPoint x="-205" y="-879" as="targetPoint" />
          </mxGeometry>
        </mxCell>
        <mxCell id="Dn0xkWM3ZomTGmDPU3Qp-112" value="" style="endArrow=none;html=1;rounded=0;fontSize=12;startSize=8;endSize=8;curved=1;entryX=0.5;entryY=1;entryDx=0;entryDy=0;" edge="1" parent="1" source="Dn0xkWM3ZomTGmDPU3Qp-193" target="Dn0xkWM3ZomTGmDPU3Qp-191">
          <mxGeometry width="50" height="50" relative="1" as="geometry">
            <mxPoint x="-258" y="-840" as="sourcePoint" />
            <mxPoint x="-280" y="-879" as="targetPoint" />
          </mxGeometry>
        </mxCell>
        <mxCell id="Dn0xkWM3ZomTGmDPU3Qp-115" value="구매" style="text;strokeColor=none;fillColor=none;html=1;align=center;verticalAlign=middle;whiteSpace=wrap;rounded=0;fontSize=16;" vertex="1" parent="1">
          <mxGeometry x="-25" y="-704" width="60" height="30" as="geometry" />
        </mxCell>
        <mxCell id="Dn0xkWM3ZomTGmDPU3Qp-116" value="제품" style="text;strokeColor=none;fillColor=none;html=1;align=center;verticalAlign=middle;whiteSpace=wrap;rounded=0;fontSize=16;" vertex="1" parent="1">
          <mxGeometry x="175" y="-704" width="60" height="30" as="geometry" />
        </mxCell>
        <mxCell id="Dn0xkWM3ZomTGmDPU3Qp-117" value="" style="endArrow=none;html=1;rounded=0;fontSize=12;startSize=8;endSize=8;curved=1;" edge="1" parent="1">
          <mxGeometry width="50" height="50" relative="1" as="geometry">
            <mxPoint x="-275" y="-624" as="sourcePoint" />
            <mxPoint x="-225" y="-674" as="targetPoint" />
          </mxGeometry>
        </mxCell>
        <mxCell id="Dn0xkWM3ZomTGmDPU3Qp-118" value="" style="endArrow=none;html=1;rounded=0;fontSize=12;startSize=8;endSize=8;curved=1;entryX=0;entryY=0.5;entryDx=0;entryDy=0;exitX=1;exitY=0.5;exitDx=0;exitDy=0;" edge="1" parent="1" source="Dn0xkWM3ZomTGmDPU3Qp-196" target="Dn0xkWM3ZomTGmDPU3Qp-89">
          <mxGeometry width="50" height="50" relative="1" as="geometry">
            <mxPoint x="-265" y="-678" as="sourcePoint" />
            <mxPoint x="-215" y="-664" as="targetPoint" />
          </mxGeometry>
        </mxCell>
        <mxCell id="Dn0xkWM3ZomTGmDPU3Qp-119" value="" style="endArrow=none;html=1;rounded=0;fontSize=12;startSize=8;endSize=8;curved=1;entryX=1;entryY=0.5;entryDx=0;entryDy=0;exitX=0;exitY=0.25;exitDx=0;exitDy=0;" edge="1" parent="1" source="Dn0xkWM3ZomTGmDPU3Qp-89" target="Dn0xkWM3ZomTGmDPU3Qp-195">
          <mxGeometry width="50" height="50" relative="1" as="geometry">
            <mxPoint x="-255" y="-604" as="sourcePoint" />
            <mxPoint x="-265.4213510818265" y="-716.2016680247709" as="targetPoint" />
          </mxGeometry>
        </mxCell>
        <mxCell id="Dn0xkWM3ZomTGmDPU3Qp-120" value="" style="endArrow=none;html=1;rounded=0;fontSize=12;startSize=8;endSize=8;curved=1;entryX=1;entryY=1;entryDx=0;entryDy=0;exitX=0;exitY=0;exitDx=0;exitDy=0;" edge="1" parent="1" source="Dn0xkWM3ZomTGmDPU3Qp-89" target="Dn0xkWM3ZomTGmDPU3Qp-194">
          <mxGeometry width="50" height="50" relative="1" as="geometry">
            <mxPoint x="-245" y="-594" as="sourcePoint" />
            <mxPoint x="-306.0300000000002" y="-922" as="targetPoint" />
          </mxGeometry>
        </mxCell>
        <mxCell id="Dn0xkWM3ZomTGmDPU3Qp-121" value="" style="endArrow=none;html=1;rounded=0;fontSize=12;startSize=8;endSize=8;curved=1;entryX=0.5;entryY=1;entryDx=0;entryDy=0;exitX=0.25;exitY=0;exitDx=0;exitDy=0;" edge="1" parent="1" source="Dn0xkWM3ZomTGmDPU3Qp-89" target="Dn0xkWM3ZomTGmDPU3Qp-193">
          <mxGeometry width="50" height="50" relative="1" as="geometry">
            <mxPoint x="-235" y="-584" as="sourcePoint" />
            <mxPoint x="-241" y="-799" as="targetPoint" />
          </mxGeometry>
        </mxCell>
        <mxCell id="Dn0xkWM3ZomTGmDPU3Qp-122" value="" style="endArrow=none;html=1;rounded=0;fontSize=12;startSize=8;endSize=8;curved=1;entryX=0.5;entryY=1;entryDx=0;entryDy=0;exitX=0.5;exitY=0;exitDx=0;exitDy=0;" edge="1" parent="1" source="Dn0xkWM3ZomTGmDPU3Qp-89" target="Dn0xkWM3ZomTGmDPU3Qp-192">
          <mxGeometry width="50" height="50" relative="1" as="geometry">
            <mxPoint x="-225" y="-574" as="sourcePoint" />
            <mxPoint x="-167" y="-800.0000000000002" as="targetPoint" />
          </mxGeometry>
        </mxCell>
        <mxCell id="Dn0xkWM3ZomTGmDPU3Qp-123" value="" style="endArrow=none;html=1;rounded=0;fontSize=12;startSize=8;endSize=8;curved=1;entryX=0.5;entryY=1;entryDx=0;entryDy=0;exitX=1;exitY=0;exitDx=0;exitDy=0;" edge="1" parent="1" source="Dn0xkWM3ZomTGmDPU3Qp-89" target="Dn0xkWM3ZomTGmDPU3Qp-189">
          <mxGeometry width="50" height="50" relative="1" as="geometry">
            <mxPoint x="-215" y="-564" as="sourcePoint" />
            <mxPoint x="-97.01999999999975" y="-796" as="targetPoint" />
          </mxGeometry>
        </mxCell>
        <mxCell id="Dn0xkWM3ZomTGmDPU3Qp-132" value="" style="endArrow=none;html=1;rounded=0;fontSize=12;startSize=8;endSize=8;curved=1;entryX=0.5;entryY=1;entryDx=0;entryDy=0;exitX=0;exitY=0;exitDx=0;exitDy=0;" edge="1" parent="1" source="Dn0xkWM3ZomTGmDPU3Qp-90">
          <mxGeometry width="50" height="50" relative="1" as="geometry">
            <mxPoint x="15" y="-559" as="sourcePoint" />
            <mxPoint x="115" y="-743" as="targetPoint" />
          </mxGeometry>
        </mxCell>
        <mxCell id="Dn0xkWM3ZomTGmDPU3Qp-133" value="" style="endArrow=none;html=1;rounded=0;fontSize=12;startSize=8;endSize=8;curved=1;exitX=0.5;exitY=0;exitDx=0;exitDy=0;" edge="1" parent="1" source="Dn0xkWM3ZomTGmDPU3Qp-90">
          <mxGeometry width="50" height="50" relative="1" as="geometry">
            <mxPoint x="155" y="-709" as="sourcePoint" />
            <mxPoint x="209.51387766099174" y="-741.2835039970391" as="targetPoint" />
          </mxGeometry>
        </mxCell>
        <mxCell id="Dn0xkWM3ZomTGmDPU3Qp-134" value="" style="endArrow=none;html=1;rounded=0;fontSize=12;startSize=8;endSize=8;curved=1;entryX=1;entryY=0.25;entryDx=0;entryDy=0;exitX=0.292;exitY=0.96;exitDx=0;exitDy=0;exitPerimeter=0;" edge="1" parent="1" target="Dn0xkWM3ZomTGmDPU3Qp-90">
          <mxGeometry width="50" height="50" relative="1" as="geometry">
            <mxPoint x="294.20000000000005" y="-720.5999999999999" as="sourcePoint" />
            <mxPoint x="135" y="-723" as="targetPoint" />
          </mxGeometry>
        </mxCell>
        <mxCell id="Dn0xkWM3ZomTGmDPU3Qp-135" value="" style="endArrow=none;html=1;rounded=0;fontSize=12;startSize=8;endSize=8;curved=1;exitX=0;exitY=0.5;exitDx=0;exitDy=0;entryX=1;entryY=0.75;entryDx=0;entryDy=0;" edge="1" parent="1" target="Dn0xkWM3ZomTGmDPU3Qp-90">
          <mxGeometry width="50" height="50" relative="1" as="geometry">
            <mxPoint x="295" y="-669" as="sourcePoint" />
            <mxPoint x="280" y="-680" as="targetPoint" />
          </mxGeometry>
        </mxCell>
        <mxCell id="Dn0xkWM3ZomTGmDPU3Qp-136" value="" style="rounded=0;whiteSpace=wrap;html=1;fontSize=16;" vertex="1" parent="1">
          <mxGeometry x="-227" y="-439" width="120" height="60" as="geometry" />
        </mxCell>
        <mxCell id="Dn0xkWM3ZomTGmDPU3Qp-137" value="지역" style="text;strokeColor=none;fillColor=none;html=1;align=center;verticalAlign=middle;whiteSpace=wrap;rounded=0;fontSize=16;" vertex="1" parent="1">
          <mxGeometry x="-195" y="-424" width="60" height="30" as="geometry" />
        </mxCell>
        <mxCell id="Dn0xkWM3ZomTGmDPU3Qp-138" style="edgeStyle=none;curved=1;rounded=0;orthogonalLoop=1;jettySize=auto;html=1;exitX=1;exitY=0.5;exitDx=0;exitDy=0;fontSize=12;startSize=8;endSize=8;" edge="1" parent="1" source="Dn0xkWM3ZomTGmDPU3Qp-93" target="Dn0xkWM3ZomTGmDPU3Qp-93">
          <mxGeometry relative="1" as="geometry" />
        </mxCell>
        <mxCell id="Dn0xkWM3ZomTGmDPU3Qp-139" value="" style="rhombus;whiteSpace=wrap;html=1;fontSize=16;" vertex="1" parent="1">
          <mxGeometry x="-225" y="-589" width="120" height="70" as="geometry" />
        </mxCell>
        <mxCell id="Dn0xkWM3ZomTGmDPU3Qp-140" value="관리" style="text;strokeColor=none;fillColor=none;html=1;align=center;verticalAlign=middle;whiteSpace=wrap;rounded=0;fontSize=16;" vertex="1" parent="1">
          <mxGeometry x="-195" y="-564" width="60" height="30" as="geometry" />
        </mxCell>
        <mxCell id="Dn0xkWM3ZomTGmDPU3Qp-141" style="edgeStyle=none;curved=1;rounded=0;orthogonalLoop=1;jettySize=auto;html=1;exitX=1;exitY=0.5;exitDx=0;exitDy=0;fontSize=12;startSize=8;endSize=8;" edge="1" parent="1" source="Dn0xkWM3ZomTGmDPU3Qp-139" target="Dn0xkWM3ZomTGmDPU3Qp-139">
          <mxGeometry relative="1" as="geometry" />
        </mxCell>
        <mxCell id="Dn0xkWM3ZomTGmDPU3Qp-142" value="" style="endArrow=none;html=1;rounded=0;fontSize=12;startSize=8;endSize=8;curved=1;entryX=0.5;entryY=1;entryDx=0;entryDy=0;" edge="1" parent="1" target="Dn0xkWM3ZomTGmDPU3Qp-89">
          <mxGeometry width="50" height="50" relative="1" as="geometry">
            <mxPoint x="-165" y="-589" as="sourcePoint" />
            <mxPoint x="-115" y="-639" as="targetPoint" />
          </mxGeometry>
        </mxCell>
        <mxCell id="Dn0xkWM3ZomTGmDPU3Qp-143" value="" style="endArrow=none;html=1;rounded=0;fontSize=12;startSize=8;endSize=8;curved=1;entryX=0.5;entryY=1;entryDx=0;entryDy=0;" edge="1" parent="1" target="Dn0xkWM3ZomTGmDPU3Qp-139">
          <mxGeometry width="50" height="50" relative="1" as="geometry">
            <mxPoint x="-165.5" y="-439" as="sourcePoint" />
            <mxPoint x="-165.5" y="-509" as="targetPoint" />
          </mxGeometry>
        </mxCell>
        <mxCell id="Dn0xkWM3ZomTGmDPU3Qp-144" value="" style="endArrow=none;html=1;rounded=0;fontSize=12;startSize=8;endSize=8;curved=1;entryX=0;entryY=1;entryDx=0;entryDy=0;" edge="1" parent="1" target="Dn0xkWM3ZomTGmDPU3Qp-93">
          <mxGeometry width="50" height="50" relative="1" as="geometry">
            <mxPoint x="-45" y="-639" as="sourcePoint" />
            <mxPoint x="-17" y="-673" as="targetPoint" />
          </mxGeometry>
        </mxCell>
        <mxCell id="Dn0xkWM3ZomTGmDPU3Qp-145" value="" style="endArrow=none;html=1;rounded=0;fontSize=12;startSize=8;endSize=8;curved=1;entryX=1;entryY=1;entryDx=0;entryDy=0;" edge="1" parent="1" target="Dn0xkWM3ZomTGmDPU3Qp-93">
          <mxGeometry width="50" height="50" relative="1" as="geometry">
            <mxPoint x="55" y="-639" as="sourcePoint" />
            <mxPoint x="37" y="-674" as="targetPoint" />
          </mxGeometry>
        </mxCell>
        <mxCell id="Dn0xkWM3ZomTGmDPU3Qp-146" value="" style="endArrow=none;html=1;rounded=0;fontSize=12;startSize=8;endSize=8;curved=1;exitX=0.5;exitY=0;exitDx=0;exitDy=0;" edge="1" parent="1" source="Dn0xkWM3ZomTGmDPU3Qp-179">
          <mxGeometry width="50" height="50" relative="1" as="geometry">
            <mxPoint x="-235" y="-329" as="sourcePoint" />
            <mxPoint x="-185" y="-379" as="targetPoint" />
          </mxGeometry>
        </mxCell>
        <mxCell id="Dn0xkWM3ZomTGmDPU3Qp-147" value="" style="endArrow=none;html=1;rounded=0;fontSize=12;startSize=8;endSize=8;curved=1;exitX=0.432;exitY=0.007;exitDx=0;exitDy=0;exitPerimeter=0;" edge="1" parent="1" source="Dn0xkWM3ZomTGmDPU3Qp-201">
          <mxGeometry width="50" height="50" relative="1" as="geometry">
            <mxPoint x="-125" y="-329" as="sourcePoint" />
            <mxPoint x="-141" y="-379" as="targetPoint" />
          </mxGeometry>
        </mxCell>
        <mxCell id="Dn0xkWM3ZomTGmDPU3Qp-175" value="" style="endArrow=none;html=1;rounded=0;fontSize=12;startSize=8;endSize=8;curved=1;exitX=0.275;exitY=0.1;exitDx=0;exitDy=0;exitPerimeter=0;" edge="1" parent="1">
          <mxGeometry width="50" height="50" relative="1" as="geometry">
            <mxPoint x="267" y="-614" as="sourcePoint" />
            <mxPoint x="225" y="-659" as="targetPoint" />
          </mxGeometry>
        </mxCell>
        <mxCell id="Dn0xkWM3ZomTGmDPU3Qp-177" value="제품코드" style="ellipse;whiteSpace=wrap;html=1;align=center;fontStyle=4;" vertex="1" parent="1">
          <mxGeometry x="55" y="-779" width="100" height="40" as="geometry" />
        </mxCell>
        <mxCell id="Dn0xkWM3ZomTGmDPU3Qp-178" value="고객코드" style="ellipse;whiteSpace=wrap;html=1;align=center;fontStyle=4;" vertex="1" parent="1">
          <mxGeometry x="-360" y="-629" width="100" height="40" as="geometry" />
        </mxCell>
        <mxCell id="Dn0xkWM3ZomTGmDPU3Qp-179" value="지역코드" style="ellipse;whiteSpace=wrap;html=1;align=center;fontStyle=4;" vertex="1" parent="1">
          <mxGeometry x="-280" y="-329" width="100" height="40" as="geometry" />
        </mxCell>
        <mxCell id="Dn0xkWM3ZomTGmDPU3Qp-182" value="제품명" style="ellipse;whiteSpace=wrap;html=1;align=center;" vertex="1" parent="1">
          <mxGeometry x="165" y="-781" width="100" height="40" as="geometry" />
        </mxCell>
        <mxCell id="Dn0xkWM3ZomTGmDPU3Qp-184" value="제품구분" style="ellipse;whiteSpace=wrap;html=1;align=center;" vertex="1" parent="1">
          <mxGeometry x="245" y="-619" width="100" height="40" as="geometry" />
        </mxCell>
        <mxCell id="Dn0xkWM3ZomTGmDPU3Qp-185" value="가격" style="ellipse;whiteSpace=wrap;html=1;align=center;" vertex="1" parent="1">
          <mxGeometry x="285" y="-679" width="100" height="40" as="geometry" />
        </mxCell>
        <mxCell id="Dn0xkWM3ZomTGmDPU3Qp-186" value="제품색상" style="ellipse;shape=doubleEllipse;margin=3;whiteSpace=wrap;html=1;align=center;" vertex="1" parent="1">
          <mxGeometry x="265" y="-759" width="100" height="40" as="geometry" />
        </mxCell>
        <mxCell id="Dn0xkWM3ZomTGmDPU3Qp-187" value="구매일자" style="ellipse;whiteSpace=wrap;html=1;align=center;" vertex="1" parent="1">
          <mxGeometry x="15" y="-639" width="100" height="40" as="geometry" />
        </mxCell>
        <mxCell id="Dn0xkWM3ZomTGmDPU3Qp-188" value="구매수량" style="ellipse;whiteSpace=wrap;html=1;align=center;" vertex="1" parent="1">
          <mxGeometry x="-100" y="-640" width="100" height="40" as="geometry" />
        </mxCell>
        <mxCell id="Dn0xkWM3ZomTGmDPU3Qp-189" value="가입일" style="ellipse;whiteSpace=wrap;html=1;align=center;" vertex="1" parent="1">
          <mxGeometry x="-85" y="-799" width="100" height="40" as="geometry" />
        </mxCell>
        <mxCell id="Dn0xkWM3ZomTGmDPU3Qp-190" value="상세주소" style="ellipse;whiteSpace=wrap;html=1;align=center;" vertex="1" parent="1">
          <mxGeometry x="-241" y="-879" width="100" height="40" as="geometry" />
        </mxCell>
        <mxCell id="Dn0xkWM3ZomTGmDPU3Qp-191" value="기본주소" style="ellipse;whiteSpace=wrap;html=1;align=center;" vertex="1" parent="1">
          <mxGeometry x="-360" y="-879" width="100" height="40" as="geometry" />
        </mxCell>
        <mxCell id="Dn0xkWM3ZomTGmDPU3Qp-192" value="지역" style="ellipse;whiteSpace=wrap;html=1;align=center;" vertex="1" parent="1">
          <mxGeometry x="-195" y="-819" width="100" height="40" as="geometry" />
        </mxCell>
        <mxCell id="Dn0xkWM3ZomTGmDPU3Qp-193" value="주소" style="ellipse;whiteSpace=wrap;html=1;align=center;" vertex="1" parent="1">
          <mxGeometry x="-300" y="-821" width="100" height="40" as="geometry" />
        </mxCell>
        <mxCell id="Dn0xkWM3ZomTGmDPU3Qp-194" value="이메일" style="ellipse;whiteSpace=wrap;html=1;align=center;" vertex="1" parent="1">
          <mxGeometry x="-360" y="-779" width="100" height="40" as="geometry" />
        </mxCell>
        <mxCell id="Dn0xkWM3ZomTGmDPU3Qp-195" value="전화번호" style="ellipse;whiteSpace=wrap;html=1;align=center;" vertex="1" parent="1">
          <mxGeometry x="-370" y="-729" width="100" height="40" as="geometry" />
        </mxCell>
        <mxCell id="Dn0xkWM3ZomTGmDPU3Qp-196" value="고객명" style="ellipse;whiteSpace=wrap;html=1;align=center;" vertex="1" parent="1">
          <mxGeometry x="-370" y="-679" width="100" height="40" as="geometry" />
        </mxCell>
        <mxCell id="Dn0xkWM3ZomTGmDPU3Qp-201" value="지역명" style="ellipse;whiteSpace=wrap;html=1;align=center;" vertex="1" parent="1">
          <mxGeometry x="-160" y="-329" width="100" height="40" as="geometry" />
        </mxCell>
      </root>
    </mxGraphModel>
  </diagram>
</mxfile>
